<svg xmlns="http://www.w3.org/2000/svg" viewBox="0 0 24 24" fill="none" stroke="#5382a1" stroke-width="1.5" stroke-linecap="round" stroke-linejoin="round">
  <!-- 컵 손잡이 -->
  <path d="M17 9.5h1.5a2.5 2.5 0 0 1 0 5H17"/>
  <!-- 컵 본체 -->
  <path d="M3 9.5h14v4.5a5 5 0 0 1-5 5H8a5 5 0 0 1-5-5z"/>
  <!-- 받침 -->
  <path d="M4.5 21.5h11"/>
  <!-- 김(스팀) 3줄 -->
  <path d="M7 2c0 1.2-1.2 1.8-1.2 3S7 6.3 7 7.5"/>
  <path d="M10.5 2c0 1.2-1.2 1.8-1.2 3s1.2 1.3 1.2 2.5"/>
  <path d="M14 2c0 1.2-1.2 1.8-1.2 3S14 6.3 14 7.5"/>
</svg>
